<svg xmlns="http://www.w3.org/2000/svg" xmlns:xlink="http://www.w3.org/1999/xlink" width="2000" zoomAndPan="magnify" viewBox="0 0 1500 1499.999933" height="2000" preserveAspectRatio="xMidYMid meet" version="1.0"><defs><clipPath id="f79bc51562"><path d="M 257 352 L 1286 352 L 1286 977 L 257 977 Z M 257 352 " clip-rule="nonzero"/></clipPath><clipPath id="b4dc9a1fac"><path d="M 246.816406 937.003906 L 1267.726562 341.996094 L 1296.652344 391.625 L 275.742188 986.636719 Z M 246.816406 937.003906 " clip-rule="nonzero"/></clipPath><clipPath id="012349cebe"><path d="M 271.632812 922.542969 L 1242.773438 356.542969 C 1256.476562 348.554688 1274.0625 353.1875 1282.050781 366.894531 C 1290.039062 380.597656 1285.402344 398.183594 1271.699219 406.171875 L 300.558594 972.171875 C 286.851562 980.160156 269.265625 975.527344 261.277344 961.820312 C 253.292969 948.117188 257.925781 930.53125 271.632812 922.542969 Z M 271.632812 922.542969 " clip-rule="nonzero"/></clipPath><clipPath id="e1ac4a7396"><path d="M 0 0 L 1029 0 L 1029 625 L 0 625 Z M 0 0 " clip-rule="nonzero"/></clipPath><clipPath id="85aeea8109"><path d="M -10.183594 585.003906 L 1010.726562 -10.003906 L 1039.652344 39.625 L 18.742188 634.636719 Z M -10.183594 585.003906 " clip-rule="nonzero"/></clipPath><clipPath id="d2a316a8cb"><path d="M 14.632812 570.542969 L 985.773438 4.542969 C 999.476562 -3.445312 1017.0625 1.1875 1025.050781 14.894531 C 1033.039062 28.597656 1028.402344 46.183594 1014.699219 54.171875 L 43.558594 620.171875 C 29.851562 628.160156 12.265625 623.527344 4.277344 609.820312 C -3.707031 596.117188 0.925781 578.53125 14.632812 570.542969 Z M 14.632812 570.542969 " clip-rule="nonzero"/></clipPath><clipPath id="c68c5cabb3"><rect x="0" width="1029" y="0" height="625"/></clipPath><clipPath id="31de9477cc"><path d="M 483 707 L 1194 707 L 1194 1146 L 483 1146 Z M 483 707 " clip-rule="nonzero"/></clipPath><clipPath id="5216fb3702"><path d="M 472.558594 1105.742188 L 1174.664062 696.539062 L 1204.121094 747.085938 L 502.019531 1156.285156 Z M 472.558594 1105.742188 " clip-rule="nonzero"/></clipPath><clipPath id="c20d758605"><path d="M 497.832031 1091.011719 L 1149.230469 711.363281 C 1163.191406 703.226562 1181.097656 707.949219 1189.234375 721.90625 C 1197.367188 735.863281 1192.648438 753.773438 1178.691406 761.90625 L 527.289062 1141.558594 C 513.332031 1149.691406 495.421875 1144.972656 487.289062 1131.015625 C 479.152344 1117.054688 483.875 1099.148438 497.832031 1091.011719 Z M 497.832031 1091.011719 " clip-rule="nonzero"/></clipPath><clipPath id="00d43214de"><path d="M 0 0 L 711 0 L 711 439 L 0 439 Z M 0 0 " clip-rule="nonzero"/></clipPath><clipPath id="b2ca7b6546"><path d="M -10.441406 398.742188 L 691.664062 -10.460938 L 721.121094 40.085938 L 19.019531 449.285156 Z M -10.441406 398.742188 " clip-rule="nonzero"/></clipPath><clipPath id="37576a6e66"><path d="M 14.832031 384.011719 L 666.230469 4.363281 C 680.191406 -3.773438 698.097656 0.949219 706.234375 14.90625 C 714.367188 28.863281 709.648438 46.773438 695.691406 54.90625 L 44.289062 434.558594 C 30.332031 442.691406 12.421875 437.972656 4.289062 424.015625 C -3.847656 410.054688 0.875 392.148438 14.832031 384.011719 Z M 14.832031 384.011719 " clip-rule="nonzero"/></clipPath><clipPath id="21d4d406dc"><rect x="0" width="711" y="0" height="439"/></clipPath><clipPath id="1d3d511af7"><path d="M 233 183 L 1179 183 L 1179 755 L 233 755 Z M 233 183 " clip-rule="nonzero"/></clipPath><clipPath id="496c42a6e0"><path d="M 250.933594 173.011719 L 1188.746094 716.789062 L 1160.765625 765.042969 L 222.949219 221.269531 Z M 250.933594 173.011719 " clip-rule="nonzero"/></clipPath><clipPath id="b82a406219"><path d="M 275.0625 187.003906 L 1164.578125 702.773438 C 1177.902344 710.5 1182.441406 727.566406 1174.714844 740.890625 C 1166.988281 754.21875 1149.921875 758.757812 1136.597656 751.03125 L 247.078125 235.257812 C 233.753906 227.53125 229.214844 210.464844 236.941406 197.140625 C 244.667969 183.816406 261.734375 179.277344 275.0625 187.003906 Z M 275.0625 187.003906 " clip-rule="nonzero"/></clipPath><clipPath id="10cb8c53bf"><path d="M 0 0 L 946 0 L 946 572 L 0 572 Z M 0 0 " clip-rule="nonzero"/></clipPath><clipPath id="d6e54223aa"><path d="M 17.933594 -9.988281 L 955.746094 533.789062 L 927.765625 582.042969 L -10.050781 38.269531 Z M 17.933594 -9.988281 " clip-rule="nonzero"/></clipPath><clipPath id="05af0b2719"><path d="M 42.0625 4.003906 L 931.578125 519.773438 C 944.902344 527.5 949.441406 544.566406 941.714844 557.890625 C 933.988281 571.21875 916.921875 575.757812 903.597656 568.03125 L 14.078125 52.257812 C 0.753906 44.53125 -3.785156 27.464844 3.941406 14.140625 C 11.667969 0.816406 28.734375 -3.722656 42.0625 4.003906 Z M 42.0625 4.003906 " clip-rule="nonzero"/></clipPath><clipPath id="a92ca6fdd0"><rect x="0" width="946" y="0" height="572"/></clipPath><clipPath id="dfee687afc"><path d="M 843.332031 322.007812 L 1296.332031 322.007812 L 1296.332031 846 L 843.332031 846 Z M 843.332031 322.007812 " clip-rule="nonzero"/></clipPath><clipPath id="065c190303"><path d="M 843.332031 584 L 1296.332031 584 L 1296.332031 846 L 843.332031 846 Z M 843.332031 584 " clip-rule="nonzero"/></clipPath><clipPath id="864d5b5704"><path d="M 1110 322.007812 L 1296.332031 322.007812 L 1296.332031 846 L 1110 846 Z M 1110 322.007812 " clip-rule="nonzero"/></clipPath><clipPath id="eed22d5ac8"><path d="M 451 472 L 765 472 L 765 811 L 451 811 Z M 451 472 " clip-rule="nonzero"/></clipPath><clipPath id="1476a49cca"><path d="M 463.324219 810.453125 L 321.785156 564.816406 L 623.308594 391.074219 L 764.847656 636.710938 Z M 463.324219 810.453125 " clip-rule="nonzero"/></clipPath><clipPath id="41e0e955d6"><path d="M 492.675781 861.398438 L 321.929688 565.070312 L 623.457031 391.328125 L 794.203125 687.65625 Z M 492.675781 861.398438 " clip-rule="nonzero"/></clipPath></defs><path fill="#7560ff" d="M 913.320312 320.691406 C 805.886719 260.421875 696.703125 198.40625 591.304688 136.101562 L 495.226562 79.617188 L 290.253906 198.117188 L 436.996094 282.84375 L 729.019531 452.292969 L 730.769531 452.292969 L 907.789062 553.90625 L 962.527344 523.917969 L 964.273438 522.171875 L 1113.050781 437.445312 Z M 1178.851562 761.207031 L 960.488281 887.277344 L 920.890625 911.734375 L 919.144531 911.734375 L 879.546875 934.441406 L 811.707031 974.039062 L 809.960938 975.785156 L 783.464844 990.925781 C 783.464844 1143.492188 783.464844 1295.765625 783.464844 1450.367188 C 783.464844 1454.152344 781.71875 1459.683594 779.679688 1463.46875 C 772.113281 1476.570312 755.222656 1480.355469 742.121094 1472.785156 L 484.160156 1324.007812 C 474.84375 1320.222656 469.019531 1310.902344 469.019531 1299.550781 C 469.019531 1246.851562 469.019531 1194.152344 469.019531 1141.453125 L 222.414062 998.207031 C 209.3125 990.636719 203.488281 973.75 211.058594 960.648438 C 214.84375 956.863281 218.628906 953.078125 222.414062 949.292969 L 331.597656 887.277344 L 469.019531 808.082031 L 469.019531 523.917969 C 469.019531 518.386719 469.019531 514.601562 472.804688 508.777344 C 480.375 495.675781 495.515625 491.890625 508.617188 499.460938 L 756.972656 642.417969 L 853.050781 585.933594 L 704.5625 501.207031 L 702.816406 499.460938 L 409.042969 330.007812 L 222.414062 222.574219 C 218.628906 220.828125 214.84375 217.042969 211.058594 211.21875 C 203.488281 199.863281 209.3125 182.976562 222.414062 175.40625 L 480.375 25.171875 C 489.691406 19.640625 499.300781 19.640625 508.617188 25.171875 L 619.546875 89.226562 L 700.488281 136.390625 L 1180.597656 412.988281 L 1182.347656 412.988281 L 1182.347656 414.734375 L 1185.839844 414.734375 L 1185.839844 416.480469 L 1187.585938 416.480469 L 1187.585938 418.226562 L 1189.335938 418.226562 L 1189.335938 421.722656 L 1191.082031 421.722656 L 1191.082031 425.214844 L 1192.828125 425.214844 L 1192.828125 430.457031 L 1194.574219 430.457031 L 1194.574219 735.003906 C 1195.738281 747.8125 1188.167969 757.421875 1178.851562 761.207031 Z M 933.992188 840.109375 L 1139.253906 721.609375 L 1139.253906 484.320312 L 990.476562 569.046875 L 990.476562 570.792969 L 729.019531 721.609375 L 699.03125 738.496094 L 697.285156 740.242188 L 682.144531 749.5625 L 512.402344 847.679688 C 510.65625 847.679688 508.617188 847.679688 506.871094 849.425781 L 360.128906 934.152344 L 290.542969 973.75 L 495.808594 1092.25 L 742.414062 951.039062 L 744.160156 951.039062 L 781.71875 928.328125 L 783.464844 926.582031 L 853.050781 886.984375 L 892.648438 864.273438 L 894.394531 862.527344 Z M 729.019531 1022.664062 L 608.484375 1090.5 L 523.757812 1141.453125 C 523.757812 1188.621094 523.757812 1235.496094 523.757812 1282.664062 L 729.019531 1401.160156 C 729.019531 1275.09375 729.019531 1149.023438 729.019531 1022.664062 Z M 702.527344 674.441406 L 523.757812 571.082031 L 523.757812 776.347656 L 653.613281 700.9375 L 668.753906 691.621094 L 670.5 691.621094 Z M 702.527344 674.441406 " fill-opacity="1" fill-rule="nonzero"/><g clip-path="url(#f79bc51562)"><g clip-path="url(#b4dc9a1fac)"><g clip-path="url(#012349cebe)"><g transform="matrix(1, 0, 0, 1, 257, 352)"><g clip-path="url(#c68c5cabb3)"><g clip-path="url(#e1ac4a7396)"><g clip-path="url(#85aeea8109)"><g clip-path="url(#d2a316a8cb)"><path fill="#7560ff" d="M -10.183594 585.003906 L 1010.535156 -9.890625 L 1039.460938 39.738281 L 18.742188 634.636719 Z M -10.183594 585.003906 " fill-opacity="1" fill-rule="nonzero"/></g></g></g></g></g></g></g></g><g clip-path="url(#31de9477cc)"><g clip-path="url(#5216fb3702)"><g clip-path="url(#c20d758605)"><g transform="matrix(1, 0, 0, 1, 483, 707)"><g clip-path="url(#21d4d406dc)"><g clip-path="url(#00d43214de)"><g clip-path="url(#b2ca7b6546)"><g clip-path="url(#37576a6e66)"><path fill="#7560ff" d="M -10.441406 398.742188 L 691.464844 -10.34375 L 720.925781 40.199219 L 19.019531 449.285156 Z M -10.441406 398.742188 " fill-opacity="1" fill-rule="nonzero"/></g></g></g></g></g></g></g></g><g clip-path="url(#1d3d511af7)"><g clip-path="url(#496c42a6e0)"><g clip-path="url(#b82a406219)"><g transform="matrix(1, 0, 0, 1, 233, 183)"><g clip-path="url(#a92ca6fdd0)"><g clip-path="url(#10cb8c53bf)"><g clip-path="url(#d6e54223aa)"><g clip-path="url(#05af0b2719)"><path fill="#7560ff" d="M 17.933594 -9.988281 L 955.746094 533.789062 L 927.765625 582.042969 L -10.050781 38.269531 Z M 17.933594 -9.988281 " fill-opacity="1" fill-rule="nonzero"/></g></g></g></g></g></g></g></g><g clip-path="url(#dfee687afc)"><path fill="#ffde59" d="M 1296.507812 584.335938 L 1296.507812 845.9375 L 1069.917969 715.136719 L 843.332031 584.335938 L 1069.917969 453.46875 L 1296.507812 322.667969 Z M 1296.507812 584.335938 " fill-opacity="1" fill-rule="nonzero"/></g><g clip-path="url(#065c190303)"><path fill="#ffbd59" d="M 843.332031 584.335938 L 1296.507812 584.335938 L 1296.507812 845.871094 Z M 843.332031 584.335938 " fill-opacity="1" fill-rule="nonzero"/></g><g clip-path="url(#864d5b5704)"><path fill="#ff751f" d="M 1296.507812 845.871094 L 1110.933594 584.335938 L 1296.507812 322.730469 Z M 1296.507812 845.871094 " fill-opacity="1" fill-rule="nonzero"/></g><g clip-path="url(#eed22d5ac8)"><g clip-path="url(#1476a49cca)"><g clip-path="url(#41e0e955d6)"><path fill="#ff751f" d="M 517.179688 479.699219 C 513.378906 477.125 509.144531 475.160156 504.621094 473.9375 C 499.433594 472.53125 494.085938 472.160156 488.867188 472.761719 C 482.992188 473.429688 477.515625 475.292969 472.664062 478.09375 C 467.808594 480.886719 463.449219 484.691406 459.925781 489.4375 C 456.800781 493.636719 454.445312 498.429688 453.058594 503.59375 C 451.835938 508.144531 451.40625 512.8125 451.726562 517.414062 L 468.347656 798.363281 C 469.71875 821.527344 489.609375 839.195312 512.773438 837.824219 C 535.941406 836.453125 553.609375 816.5625 552.238281 793.398438 L 540.554688 595.914062 L 705.550781 705.058594 C 724.90625 717.859375 750.972656 712.550781 763.777344 693.195312 C 776.578125 673.839844 771.265625 647.773438 751.914062 634.96875 Z M 517.179688 479.699219 " fill-opacity="1" fill-rule="evenodd"/></g></g></g></svg>