<svg xmlns="http://www.w3.org/2000/svg" xmlns:xlink="http://www.w3.org/1999/xlink" width="2000" zoomAndPan="magnify" viewBox="0 0 1500 1499.999933" height="2000" preserveAspectRatio="xMidYMid meet" version="1.0"><defs><clipPath id="126a1613e3"><path d="M 116.917969 19 L 1382.917969 19 L 1382.917969 1481 L 116.917969 1481 Z M 116.917969 19 " clip-rule="nonzero"/></clipPath><clipPath id="0cd23d87a8"><path d="M 116.917969 750 L 1382.917969 750 L 1382.917969 1481 L 116.917969 1481 Z M 116.917969 750 " clip-rule="nonzero"/></clipPath><clipPath id="06d2136c54"><path d="M 864 19 L 1382.917969 19 L 1382.917969 1481 L 864 1481 Z M 864 19 " clip-rule="nonzero"/></clipPath></defs><g clip-path="url(#126a1613e3)"><path fill="#ffde59" d="M 1383.070312 750.089844 L 1383.070312 1480.996094 L 749.996094 1115.542969 L 116.917969 750.089844 L 749.996094 384.453125 L 1383.070312 19 Z M 1383.070312 750.089844 " fill-opacity="1" fill-rule="nonzero"/></g><g clip-path="url(#0cd23d87a8)"><path fill="#ffbd59" d="M 116.917969 750.089844 L 1383.070312 750.089844 L 1383.070312 1480.816406 Z M 116.917969 750.089844 " fill-opacity="1" fill-rule="nonzero"/></g><g clip-path="url(#06d2136c54)"><path fill="#ff751f" d="M 1383.070312 1480.816406 L 864.585938 750.089844 L 1383.070312 19.183594 Z M 1383.070312 1480.816406 " fill-opacity="1" fill-rule="nonzero"/></g></svg>